<?xml version="1.0" encoding="UTF-8" standalone="no"?>
<!-- Created with Inkscape (http://www.inkscape.org/) -->

<svg
   xmlns:dc="http://purl.org/dc/elements/1.1/"
   xmlns:cc="http://creativecommons.org/ns#"
   xmlns:rdf="http://www.w3.org/1999/02/22-rdf-syntax-ns#"
   xmlns:svg="http://www.w3.org/2000/svg"
   xmlns="http://www.w3.org/2000/svg"
   xmlns:sodipodi="http://sodipodi.sourceforge.net/DTD/sodipodi-0.dtd"
   xmlns:inkscape="http://www.inkscape.org/namespaces/inkscape"
   width="210mm"
   height="297mm"
   viewBox="0 0 210 297"
   version="1.1"
   id="svg8"
   inkscape:version="0.92.4 (5da689c313, 2019-01-14)"
   sodipodi:docname="Bromse logo.svg"
   inkscape:export-filename="C:\Projets\bromse\src\assets\bromse-logo.png"
   inkscape:export-xdpi="333"
   inkscape:export-ydpi="333">
  <defs
     id="defs2">
    <style
       id="style2">.cls-1{fill:#444956;}.cls-2{fill:#0399d6;}</style>
  </defs>
  <sodipodi:namedview
     id="base"
     pagecolor="#ffffff"
     bordercolor="#666666"
     borderopacity="1.0"
     inkscape:pageopacity="0.0"
     inkscape:pageshadow="2"
     inkscape:zoom="2.8"
     inkscape:cx="270.12398"
     inkscape:cy="1027.5928"
     inkscape:document-units="mm"
     inkscape:current-layer="layer1"
     showgrid="false"
     inkscape:window-width="2560"
     inkscape:window-height="1387"
     inkscape:window-x="1912"
     inkscape:window-y="-8"
     inkscape:window-maximized="1" />
  <metadata
     id="metadata5">
    <rdf:RDF>
      <cc:Work
         rdf:about="">
        <dc:format>image/svg+xml</dc:format>
        <dc:type
           rdf:resource="http://purl.org/dc/dcmitype/StillImage" />
        <dc:title></dc:title>
      </cc:Work>
    </rdf:RDF>
  </metadata>
  <g
     inkscape:label="Calque 1"
     inkscape:groupmode="layer"
     id="layer1">
    <text
       xml:space="preserve"
       style="font-style:normal;font-weight:normal;font-size:10.58333302px;line-height:1.25;font-family:sans-serif;letter-spacing:0px;word-spacing:0px;fill:#0399d6;fill-opacity:1;stroke:none;stroke-width:0.26458332"
       x="51.820538"
       y="41.322361"
       id="text4520"><tspan
         sodipodi:role="line"
         id="tspan4518"
         x="51.820538"
         y="41.322361"
         style="font-style:normal;font-variant:normal;font-weight:normal;font-stretch:normal;font-family:'Eras Bold ITC';-inkscape-font-specification:'Eras Bold ITC';fill:none;fill-opacity:1;stroke:#000000;stroke-width:0.26458332;stroke-opacity:1">B</tspan></text>
    <g
       id="g4561"
       transform="matrix(0.02757874,0,0,0.02757874,95.815806,42.26133)">
      <g
         data-name="Calque 2"
         id="Calque_2">
        <g
           data-name="Calque 1"
           id="Calque_1-2">
          <path
             id="path8"
             d="m 85.76,63.44 h 0.84 c 49.75,0.28 59.21,38.37 59.21,65.33 v 92 h -36.42 v -82.83 c 0,-22.8 -7.5,-40.31 -33.08,-40.31 -25.86,0.27 -34.75,17.51 -34.75,38.92 v 84.24 H 5.13 V 68.17 h 34.2 c 0,6.67 0,13.06 -0.28,20.29 6.61,-11.83 20,-25 46.71,-25 m 0,-5.13 C 66.1,58.3 53.06,65 44.46,73.13 c 0,-1.64 0,-3.29 0,-5 V 63 H 0 v 162.93 h 46.69 v -89.37 c 0,-22.21 10,-33.58 29.67,-33.78 19.27,0 27.89,10.85 27.89,35.17 v 88 h 46.69 V 128.77 C 150.94,84.22 127.5,58.53 86.63,58.3 Z"
             class="cls-1"
             inkscape:connector-curvature="0"
             style="fill:#444956" />
          <path
             id="path10"
             d="m 475.46,63.17 h 35.38 v 23 c 11.22,-15.82 29.62,-27.9 55.8,-27.9 55.22,0 78.52,46.88 78.52,85.14 0,44.87 -31.93,82.54 -78.24,82.54 -30.77,0 -47.46,-15.81 -53.79,-25.89 v 76.22 h -37.67 z m 133.26,76.69 c 0,-22.15 -16,-47.38 -47.1,-47.38 a 45.65,45.65 0 0 0 -33.37,14 48.67,48.67 0 0 0 -13.17,33.93 46.44,46.44 0 0 0 46.82,47.1 c 28,0 46.82,-22.15 46.82,-47.39 z"
             class="cls-1"
             inkscape:connector-curvature="0"
             style="fill:#444956" />
          <path
             id="path12"
             d="M 676.69,89.14 H 648.9 V 58.31 h 27.78 V 0 h 40 v 58.31 h 28.7 v 30.83 h -28.7 v 136.78 h -40 z"
             class="cls-1"
             inkscape:connector-curvature="0"
             style="fill:#444956" />
          <path
             id="path14"
             d="m 319.54,97.19 c 4.79,15.74 -0.52,38.14 -0.52,54.65 0,4.4 -0.33,3.68 -1,8 H 456.27 C 459.35,132.08 452.35,102.57 433.6,82.62 419.33,67.29 399.18,58.33 376.23,58.33 A 77.91,77.91 0 0 0 316.86,85.66 83.07,83.07 0 0 0 254.63,58.3 79.54,79.54 0 0 0 207.86,73.09 c -14.11,9.83 -25.45,24.36 -32.72,42 l -2.76,6.71 h 47.93 l 1.37,-2.56 c 6.72,-12.5 17.71,-18.84 32.66,-18.84 H 255 c 15.43,0 31.86,8.74 37.24,25.56 a 37.39,37.39 0 0 1 1.2,4.94 H 170 c -2.34,27.47 5.22,48.93 24.27,69.2 15.5,16.65 37.14,25.82 60.91,25.82 a 83.45,83.45 0 0 0 65.17,-31.55 l 2.46,-3.05 -2.46,-3 c -10.63,-13.14 -12.81,-29.92 -12.81,-51.07 0,-0.57 0,-1 0,-1.47 h 0.2 v -4.84 h -9.37 l -0.49,-2.58 C 293.27,107.3 273.88,95.58 255,95.58 h -0.63 c -17.91,0 -29.94,8.38 -36.94,21.4 h -37.8 C 186.9,99.3 197.82,86 210.69,77 a 74.39,74.39 0 0 1 43.94,-13.88 79,79 0 0 1 62.11,29.73 m -0.16,98.43 c -14.47,18 -36.1,29.73 -61.39,29.73 -22.95,0 -43.1,-9 -57.37,-24.29 -17,-18.11 -24.35,-37 -23.26,-61 h 128.15 c 0,0.44 0,0.92 0,1.47 -0.02,20.1 1.81,39.23 13.87,54.13 z m 60.57,-100 c 24.27,0 43.95,21.15 43.95,39.66 h -87.9 c 0,-19.21 19.68,-39.65 43.95,-39.65 z"
             class="cls-1"
             inkscape:connector-curvature="0"
             style="fill:#444956" />
          <path
             id="path16"
             d="m 254.36,193 h 0.55 c 27.15,0 42,-20.24 43.38,-35.86 h -87 c 1.35,14.91 16.54,35.86 43.07,35.86 z m 0.55,-4.86 h -0.55 c -13.49,0 -32.55,-9.05 -37.3,-26.15 h 75.36 c -3.64,12.2 -16.06,26.13 -37.51,26.13 z"
             class="cls-1"
             inkscape:connector-curvature="0"
             style="fill:#444956" />
          <path
             id="path18"
             d="m 415.89,170.1 c -7,13.51 -19,22.21 -36.94,22.21 -19.88,0.29 -40.43,-13 -44,-36.81 a 95.46,95.46 0 0 0 0.8,-12 c 0,-20.86 -7,-35.16 -19.06,-50.64 v 0 A 79,79 0 0 0 254.59,63.14 74.39,74.39 0 0 0 210.69,77 c -12.87,9 -23.79,22.26 -31.06,39.9 h 37.78 c 7,-13 19,-21.4 36.94,-21.4 20.06,-0.28 40.79,12.71 44.06,36.06 a 95.8,95.8 0 0 0 -0.89,12.82 c 0,20.86 7,35.16 19.06,50.64 14.49,18.6 36.28,30.87 62.1,30.87 a 72.54,72.54 0 0 0 43.94,-14.41 c 12.87,-9.31 23.79,-23.11 31.06,-41.42 z"
             class="cls-2"
             inkscape:connector-curvature="0"
             style="fill:#0399d6" />
        </g>
      </g>
      <path
         inkscape:connector-curvature="0"
         id="path3731"
         d="M 5.4831583,144.5007 V 68.55337 H 22.175081 38.867003 l 0.141765,9.974837 0.141765,9.974836 2.526662,-3.699074 c 1.389664,-2.034491 4.461343,-5.524891 6.825954,-7.756443 9.709522,-9.163163 21.351063,-13.187731 38.14709,-13.187731 33.283831,0 53.208551,17.458633 57.944551,50.772745 0.62054,4.36495 0.76023,14.47298 0.76805,55.57542 l 0.01,50.24008 h -17.70301 -17.703 l -0.24706,-45.54231 c -0.26654,-49.13356 -0.2887,-49.54164 -3.1346,-57.72502 -3.48688,-10.02653 -9.967925,-16.02758 -20.195479,-18.699767 -4.993853,-1.30476 -15.649832,-1.16519 -21.042865,0.275616 -11.572063,3.091601 -18.881409,10.692661 -22.405044,23.299231 -1.163065,4.16111 -1.167708,4.34144 -1.320455,51.28402 L 41.4676,220.44804 H 23.475379 5.4831583 Z"
         style="fill:#ffffff;stroke-width:0.5219748" />
      <path
         inkscape:connector-curvature="0"
         id="path3733"
         d="m 248.20144,220.45243 c -14.29223,-1.14686 -28.72621,-6.48195 -39.69183,-14.67089 -5.94504,-4.43965 -9.22198,-7.55984 -14.47347,-13.78113 -12.4782,-14.78255 -18.3991,-29.81106 -19.2677,-48.90548 l -0.32784,-7.20681 61.54373,6.8e-4 61.54373,6.8e-4 0.0183,9.00338 c 0.0101,4.95187 0.1907,9.64933 0.40143,10.43882 l 0.38315,1.43543 h -43.59483 c -41.54114,0 -43.59484,0.044 -43.59484,0.93428 0,1.78103 1.61342,7.17192 3.10687,10.3809 3.08469,6.6281 9.06259,13.59641 15.32539,17.86448 10.99882,7.49564 26.87808,9.32063 40.81188,4.69049 6.62589,-2.20176 11.25821,-5.10517 16.48946,-10.33513 5.17405,-5.17278 7.77121,-9.42174 10.2353,-16.74497 0.91849,-2.72973 1.68188,-4.46091 1.69642,-3.84709 0.1185,5.00144 6.46196,19.56155 12.20609,28.01655 1.91378,2.81696 3.4796,5.28848 3.4796,5.49226 0,0.5157 -8.05625,8.33077 -11.22246,10.88648 -14.75047,11.90637 -35.106,17.94892 -55.06834,16.34707 z"
         style="fill:#ffffff;stroke-width:0.5219748" />
    </g>
    <text
       xml:space="preserve"
       style="font-style:normal;font-weight:normal;font-size:10.58333302px;line-height:1.25;font-family:sans-serif;letter-spacing:0px;word-spacing:0px;fill:#0399d6;fill-opacity:1;stroke:none;stroke-width:0.26458332"
       x="59.346695"
       y="41.322361"
       id="text4520-7"><tspan
         sodipodi:role="line"
         id="tspan4518-3"
         x="59.346695"
         y="41.322361"
         style="font-style:normal;font-variant:normal;font-weight:normal;font-stretch:normal;font-family:'Eras Bold ITC';-inkscape-font-specification:'Eras Bold ITC';fill:#0399d6;fill-opacity:1;stroke:#000000;stroke-width:0.26458332;stroke-opacity:1">.</tspan></text>
    <text
       xml:space="preserve"
       style="font-style:normal;font-weight:normal;font-size:10.58333302px;line-height:1.25;font-family:sans-serif;letter-spacing:0px;word-spacing:0px;fill:#444956;fill-opacity:1;stroke:none;stroke-width:0.26458332"
       x="62.276009"
       y="41.188004"
       id="text4520-7-6"><tspan
         sodipodi:role="line"
         id="tspan4518-3-1"
         x="62.276009"
         y="41.188004"
         style="font-style:normal;font-variant:normal;font-weight:normal;font-stretch:normal;font-family:'Eras Bold ITC';-inkscape-font-specification:'Eras Bold ITC';fill:#444956;fill-opacity:1;stroke:none;stroke-width:0.26458332;stroke-opacity:1">R.O.M.S.E.</tspan></text>
    <text
       xml:space="preserve"
       style="font-style:normal;font-weight:normal;font-size:4.03919649px;line-height:1.25;font-family:sans-serif;letter-spacing:0px;word-spacing:0px;fill:#0399d6;fill-opacity:1;stroke:#000000;stroke-width:0.1009799;stroke-opacity:1"
       x="87.076698"
       y="46.936878"
       id="text4520-7-6-5"><tspan
         sodipodi:role="line"
         id="tspan4518-3-1-0"
         x="87.076698"
         y="46.936878"
         style="font-style:normal;font-variant:normal;font-weight:normal;font-stretch:normal;font-family:'Eras Bold ITC';-inkscape-font-specification:'Eras Bold ITC';fill:#0399d6;fill-opacity:1;stroke:#000000;stroke-width:0.1009799;stroke-opacity:1">by</tspan></text>
  </g>
</svg>
